# xmcd
#
# Track frame offsets: 
#        150
#        20118
#        40576
#        83137
#        99057
#        123831
#        140461
#        161902
#        191567
#        214179
#        236425
#        257896
#
# Disc length: 3811 seconds
#
# Revision: 0
# Processed by: cddbd v1.5.2PL0 Copyright (c) Steve Scherf et al.
# Submitted via: ExactAudioCopy v0.99pb5
#
DISCID=9c0ee10c
DTITLE=The Notting Hillbillies - Shepherd's Bush Empire 1997 - CD2
DYEAR=1997
DGENRE=Country
TTITLE0=Denomination blues
TTITLE1=K.C. moan
TTITLE2=Calling Elvis
TTITLE3=One sided love affair
TTITLE4=I'm the fool
TTITLE5=Bewildered
TTITLE6=Cannibals
TTITLE7=Are we in trouble now
TTITLE8=Setting me up
TTITLE9=Feel like going home
TTITLE10=Wild theme
TTITLE11=The next time I'm in town
EXTD=
EXTT0=
EXTT1=
EXTT2=
EXTT3=
EXTT4=
EXTT5=
EXTT6=
EXTT7=
EXTT8=
EXTT9=
EXTT10=
EXTT11=
PLAYORDER=
